<svg xmlns="http://www.w3.org/2000/svg" viewBox="0 0 64 64">
  <defs>
    <linearGradient id="goldArrow" x1="0%" y1="100%" x2="100%" y2="0%">
      <stop offset="0%" stop-color="#D99A21"/>
      <stop offset="100%" stop-color="#FFF08A"/>
    </linearGradient>
    <linearGradient id="greenTail" x1="0%" y1="100%" x2="100%" y2="0%">
      <stop offset="0%" stop-color="#0A3D2A"/>
      <stop offset="100%" stop-color="#8CEB3B"/>
    </linearGradient>
  </defs>
  <rect width="64" height="64" rx="14" fill="#070B20"/>
  <path d="M10 43c8 6 20 6 31 2 10-5 18-13 23-24l-5-2 3-11-10 6 3 1c-3 8-8 15-13 20-10 9-23 12-35 8z"
        fill="url(#goldArrow)"/>
  <path d="M12 46c12 2 21-2 29-8 7-7 10-15 12-23 4 9 2 23-6 32-7 8-19 14-35 13z"
        fill="url(#greenTail)"/>
  <rect x="19" y="27" width="5" height="13" fill="#E5B43A"/>
  <rect x="27" y="23" width="6" height="16" fill="#E5B43A"/>
  <rect x="36" y="20" width="6" height="13" fill="#E5B43A"/>
</svg>

