<svg xmlns="http://www.w3.org/2000/svg" viewBox="0 0 256 256">
  <defs>
    <linearGradient id="goldArrow" x1="0%" y1="100%" x2="100%" y2="0%">
      <stop offset="0%" stop-color="#D99A21"/>
      <stop offset="100%" stop-color="#FFF08A"/>
    </linearGradient>
    <linearGradient id="greenTail" x1="0%" y1="100%" x2="100%" y2="0%">
      <stop offset="0%" stop-color="#0A3D2A"/>
      <stop offset="100%" stop-color="#8CEB3B"/>
    </linearGradient>
    <linearGradient id="cGold" x1="0%" y1="0%" x2="0%" y2="100%">
      <stop offset="0%" stop-color="#FFF28E"/>
      <stop offset="100%" stop-color="#D89A1E"/>
    </linearGradient>
    <linearGradient id="cGreen" x1="0%" y1="0%" x2="0%" y2="100%">
      <stop offset="0%" stop-color="#6CE06A"/>
      <stop offset="100%" stop-color="#1D8E3B"/>
    </linearGradient>
  </defs>
  <path d="M42 170c31 20 76 22 117 3 42-20 72-58 90-100l-16-7 43-24-5 49-16-9c-10 22-25 47-44 65-45 44-114 57-169 29z"
        fill="url(#goldArrow)"/>
  <path d="M48 179c45 5 86-10 119-40 29-26 43-62 49-92 12 19 15 57-3 95-18 40-54 70-110 79-21-9-39-23-55-42z"
        fill="url(#greenTail)"/>
  <rect x="58" y="105" width="20" height="54" fill="url(#cGold)"/><rect x="65" y="93" width="6" height="70" fill="url(#cGold)"/>
  <rect x="90" y="87" width="22" height="64" fill="url(#cGold)"/><rect x="97" y="75" width="7" height="80" fill="url(#cGold)"/>
  <rect x="124" y="71" width="24" height="72" fill="url(#cGold)"/><rect x="132" y="59" width="7" height="87" fill="url(#cGold)"/>
  <rect x="160" y="93" width="18" height="42" fill="url(#cGreen)"/><rect x="166" y="81" width="6" height="56" fill="url(#cGreen)"/>
  <circle cx="44" cy="133" r="4" fill="#D99A21"/>
</svg>

