<svg xmlns="http://www.w3.org/2000/svg" viewBox="0 0 256 256">
  <defs>
    <linearGradient id="shieldLine" x1="0%" y1="0%" x2="100%" y2="100%">
      <stop offset="0%" stop-color="#7DE3FF"/>
      <stop offset="55%" stop-color="#22C1FF"/>
      <stop offset="100%" stop-color="#1F7BFF"/>
    </linearGradient>
    <linearGradient id="arrowGrad" x1="0%" y1="100%" x2="100%" y2="0%">
      <stop offset="0%" stop-color="#06B6FF"/>
      <stop offset="55%" stop-color="#30D158"/>
      <stop offset="100%" stop-color="#E9FF45"/>
    </linearGradient>
    <linearGradient id="cRed" x1="0%" y1="0%" x2="0%" y2="100%">
      <stop offset="0%" stop-color="#FF5D5D"/>
      <stop offset="100%" stop-color="#FF1111"/>
    </linearGradient>
    <linearGradient id="cOrange" x1="0%" y1="0%" x2="0%" y2="100%">
      <stop offset="0%" stop-color="#FFD85E"/>
      <stop offset="100%" stop-color="#FF6723"/>
    </linearGradient>
    <linearGradient id="cYellow" x1="0%" y1="0%" x2="0%" y2="100%">
      <stop offset="0%" stop-color="#FFE760"/>
      <stop offset="100%" stop-color="#F29D2A"/>
    </linearGradient>
    <linearGradient id="cGreen" x1="0%" y1="0%" x2="0%" y2="100%">
      <stop offset="0%" stop-color="#66F06B"/>
      <stop offset="100%" stop-color="#13B84D"/>
    </linearGradient>
  </defs>
  <path d="M128 26C101 45 70 55 38 62v45c0 51 37 91 90 113 53-22 90-62 90-113V62c-32-7-63-17-90-36z"
        fill="none" stroke="url(#shieldLine)" stroke-width="12"/>
  <rect x="73" y="95" width="20" height="64" fill="url(#cRed)"/><rect x="80" y="83" width="6" height="84" fill="url(#cRed)"/>
  <rect x="104" y="77" width="22" height="75" fill="url(#cOrange)"/><rect x="111" y="63" width="7" height="98" fill="url(#cOrange)"/>
  <rect x="137" y="61" width="24" height="84" fill="url(#cYellow)"/><rect x="145" y="47" width="7" height="101" fill="url(#cYellow)"/>
  <rect x="172" y="82" width="18" height="58" fill="url(#cGreen)"/><rect x="178" y="68" width="6" height="82" fill="url(#cGreen)"/>
  <path d="M54 164c19 18 48 25 76 15 20-8 37-21 49-37 8-10 14-20 20-32l11 6-4-27-24 13 10 5c-14 27-30 44-53 56-25 12-56 11-84-1z"
        fill="url(#arrowGrad)"/>
</svg>
