<svg xmlns="http://www.w3.org/2000/svg" viewBox="0 0 64 64">
  <defs>
    <linearGradient id="shieldLine" x1="0%" y1="0%" x2="100%" y2="100%">
      <stop offset="0%" stop-color="#7DE3FF"/>
      <stop offset="55%" stop-color="#22C1FF"/>
      <stop offset="100%" stop-color="#1F7BFF"/>
    </linearGradient>
    <linearGradient id="arrowGrad" x1="0%" y1="100%" x2="100%" y2="0%">
      <stop offset="0%" stop-color="#06B6FF"/>
      <stop offset="55%" stop-color="#30D158"/>
      <stop offset="100%" stop-color="#E9FF45"/>
    </linearGradient>
  </defs>
  <rect width="64" height="64" rx="14" fill="#02081A"/>
  <path d="M32 8c-7 5-15 8-23 10v12c0 14 10 24 23 30 13-6 23-16 23-30V18c-8-2-16-5-23-10z"
        fill="none" stroke="url(#shieldLine)" stroke-width="3.4"/>
  <rect x="20" y="25" width="5" height="14" fill="#FF3B3B"/>
  <rect x="28" y="21" width="6" height="16" fill="#FF8C2A"/>
  <rect x="37" y="18" width="6" height="15" fill="#FFD700"/>
  <path d="M15 41c6 5 13 7 20 4 5-2 9-5 12-9 2-3 4-6 5-9l3 1-1-7-6 4 2 1c-4 7-8 11-14 14-6 3-14 3-21 1z"
        fill="url(#arrowGrad)"/>
</svg>
