<svg xmlns="http://www.w3.org/2000/svg" viewBox="0 0 920 220">
  <defs>
    <linearGradient id="goldArrow" x1="0%" y1="100%" x2="100%" y2="0%">
      <stop offset="0%" stop-color="#D99A21"/>
      <stop offset="100%" stop-color="#FFF08A"/>
    </linearGradient>
    <linearGradient id="greenTail" x1="0%" y1="100%" x2="100%" y2="0%">
      <stop offset="0%" stop-color="#0A3D2A"/>
      <stop offset="100%" stop-color="#8CEB3B"/>
    </linearGradient>
    <linearGradient id="txtMain" x1="0%" y1="0%" x2="100%" y2="100%">
      <stop offset="0%" stop-color="#FFFFFF"/>
      <stop offset="100%" stop-color="#D9E8FF"/>
    </linearGradient>
    <linearGradient id="txtEx" x1="0%" y1="0%" x2="100%" y2="100%">
      <stop offset="0%" stop-color="#BDEB52"/>
      <stop offset="100%" stop-color="#2BB84A"/>
    </linearGradient>
    <linearGradient id="cGold" x1="0%" y1="0%" x2="0%" y2="100%">
      <stop offset="0%" stop-color="#FFF28E"/>
      <stop offset="100%" stop-color="#D89A1E"/>
    </linearGradient>
    <linearGradient id="cGreen" x1="0%" y1="0%" x2="0%" y2="100%">
      <stop offset="0%" stop-color="#6CE06A"/>
      <stop offset="100%" stop-color="#1D8E3B"/>
    </linearGradient>
  </defs>

  <g transform="translate(20,16)">
    <path d="M64 146c26 17 64 19 99 2 36-17 61-49 77-86l-14-6 42-23-5 48-15-8c-9 20-22 41-38 57-39 39-101 50-154 25z"
          fill="url(#goldArrow)"/>
    <path d="M70 154c38 4 73-9 102-35 24-22 37-52 42-77 11 16 13 48-2 81-15 33-47 59-95 66-18-8-33-19-47-35z"
          fill="url(#greenTail)"/>
    <rect x="74" y="90" width="20" height="54" fill="url(#cGold)"/><rect x="81" y="78" width="6" height="70" fill="url(#cGold)"/>
    <rect x="106" y="72" width="22" height="64" fill="url(#cGold)"/><rect x="113" y="60" width="7" height="80" fill="url(#cGold)"/>
    <rect x="140" y="56" width="24" height="72" fill="url(#cGold)"/><rect x="148" y="44" width="7" height="87" fill="url(#cGold)"/>
    <rect x="176" y="78" width="18" height="42" fill="url(#cGreen)"/><rect x="182" y="66" width="6" height="56" fill="url(#cGreen)"/>
    <circle cx="60" cy="118" r="4" fill="#D99A21"/>
  </g>

  <g transform="translate(316,152)">
    <text x="0" y="0" font-size="148" font-weight="700" font-style="italic" font-family="Segoe UI, Arial, sans-serif" fill="url(#txtMain)">Journ</text>
    <text x="426" y="0" font-size="148" font-weight="700" font-style="italic" font-family="Segoe UI, Arial, sans-serif" fill="url(#txtEx)">ex</text>
  </g>
</svg>

