<svg xmlns="http://www.w3.org/2000/svg" viewBox="0 0 920 220">
  <defs>
    <linearGradient id="shieldLine" x1="0%" y1="0%" x2="100%" y2="100%">
      <stop offset="0%" stop-color="#7DE3FF"/>
      <stop offset="55%" stop-color="#22C1FF"/>
      <stop offset="100%" stop-color="#1F7BFF"/>
    </linearGradient>
    <linearGradient id="arrowGrad" x1="0%" y1="100%" x2="100%" y2="0%">
      <stop offset="0%" stop-color="#06B6FF"/>
      <stop offset="55%" stop-color="#30D158"/>
      <stop offset="100%" stop-color="#E9FF45"/>
    </linearGradient>
    <linearGradient id="txtMain" x1="0%" y1="0%" x2="100%" y2="100%">
      <stop offset="0%" stop-color="#FFFFFF"/>
      <stop offset="100%" stop-color="#8FD7FF"/>
    </linearGradient>
    <linearGradient id="txtEx" x1="0%" y1="0%" x2="100%" y2="100%">
      <stop offset="0%" stop-color="#D8FF55"/>
      <stop offset="100%" stop-color="#30D158"/>
    </linearGradient>
    <linearGradient id="cRed" x1="0%" y1="0%" x2="0%" y2="100%">
      <stop offset="0%" stop-color="#FF5D5D"/>
      <stop offset="100%" stop-color="#FF1111"/>
    </linearGradient>
    <linearGradient id="cOrange" x1="0%" y1="0%" x2="0%" y2="100%">
      <stop offset="0%" stop-color="#FFD85E"/>
      <stop offset="100%" stop-color="#FF6723"/>
    </linearGradient>
    <linearGradient id="cYellow" x1="0%" y1="0%" x2="0%" y2="100%">
      <stop offset="0%" stop-color="#FFE760"/>
      <stop offset="100%" stop-color="#F29D2A"/>
    </linearGradient>
    <linearGradient id="cGreen" x1="0%" y1="0%" x2="0%" y2="100%">
      <stop offset="0%" stop-color="#66F06B"/>
      <stop offset="100%" stop-color="#13B84D"/>
    </linearGradient>
    <filter id="neonGlow" x="-40%" y="-40%" width="180%" height="180%">
      <feGaussianBlur stdDeviation="5" result="blur"/>
      <feMerge>
        <feMergeNode in="blur"/>
        <feMergeNode in="SourceGraphic"/>
      </feMerge>
    </filter>
  </defs>

  <g transform="translate(10,8)">
    <path d="M150 18C118 40 82 52 44 60V118c0 53 44 94 106 118 63-24 106-65 106-118V60C219 52 182 40 150 18z"
          fill="none" stroke="url(#shieldLine)" stroke-width="11" filter="url(#neonGlow)"/>

    <g>
      <rect x="78" y="94" width="22" height="70" fill="url(#cRed)"/><rect x="86" y="82" width="6" height="94" fill="url(#cRed)"/>
      <rect x="112" y="74" width="24" height="84" fill="url(#cOrange)"/><rect x="120" y="58" width="8" height="116" fill="url(#cOrange)"/>
      <rect x="148" y="58" width="26" height="94" fill="url(#cYellow)"/><rect x="157" y="42" width="8" height="116" fill="url(#cYellow)"/>
      <rect x="186" y="78" width="20" height="68" fill="url(#cGreen)"/><rect x="193" y="60" width="6" height="100" fill="url(#cGreen)"/>
    </g>

    <path d="M56 170c24 22 60 30 95 17 24-9 44-24 58-43 10-12 17-24 24-38l14 7-5-34-30 17 12 6c-17 32-37 52-66 66-31 15-70 14-102-1z"
          fill="url(#arrowGrad)" filter="url(#neonGlow)"/>

    <rect x="138" y="150" width="12" height="22" fill="#11A6F8" opacity="0.6"/>
    <rect x="164" y="134" width="14" height="38" fill="#17B5FF" opacity="0.65"/>
    <rect x="192" y="116" width="14" height="56" fill="#2BD0FF" opacity="0.7"/>
  </g>

  <g transform="translate(292,152)">
    <text x="0" y="0" font-size="148" font-weight="700" font-style="italic" font-family="Segoe UI, Arial, sans-serif" fill="url(#txtMain)">Journ</text>
    <text x="420" y="0" font-size="148" font-weight="700" font-style="italic" font-family="Segoe UI, Arial, sans-serif" fill="url(#txtEx)">ex</text>
  </g>
</svg>
